<?xml version="1.0" encoding="UTF-8" standalone="no"?>
<!DOCTYPE svg PUBLIC "-//W3C//DTD SVG 1.1//EN"
 "http://www.w3.org/Graphics/SVG/1.1/DTD/svg11.dtd">
<!-- Generated by graphviz version 2.36.0 (20140111.2315)
 -->
<!-- Title: G Pages: 1 -->
<svg width="136pt" height="410pt"
 viewBox="0.00 0.00 136.00 410.00" xmlns="http://www.w3.org/2000/svg" xmlns:xlink="http://www.w3.org/1999/xlink">
<g id="graph0" class="graph" transform="scale(1 1) rotate(0) translate(4 406)">
<title>G</title>
<polygon fill="white" stroke="none" points="-4,4 -4,-406 132,-406 132,4 -4,4"/>
<g id="clust1" class="cluster"><title>cluster_Global</title>
<path fill="none" stroke="gray" d="M20,-8C20,-8 108,-8 108,-8 114,-8 120,-14 120,-20 120,-20 120,-382 120,-382 120,-388 114,-394 108,-394 108,-394 20,-394 20,-394 14,-394 8,-388 8,-382 8,-382 8,-20 8,-20 8,-14 14,-8 20,-8"/>
<text text-anchor="middle" x="64" y="-381.2" font-family="Times,serif" font-size="11.00" fill="gray">Global</text>
</g>
<g id="clust2" class="cluster"><title>cluster_\rootOOP</title>
<path fill="none" stroke="gray" d="M28,-16C28,-16 100,-16 100,-16 106,-16 112,-22 112,-28 112,-28 112,-354 112,-354 112,-360 106,-366 100,-366 100,-366 28,-366 28,-366 22,-366 16,-360 16,-354 16,-354 16,-28 16,-28 16,-22 22,-16 28,-16"/>
<text text-anchor="middle" x="64" y="-353.2" font-family="Times,serif" font-size="11.00" fill="gray">rootOOP</text>
</g>
<g id="clust3" class="cluster"><title>cluster_\rootOOP\Core</title>
<path fill="none" stroke="gray" d="M36,-104C36,-104 92,-104 92,-104 98,-104 104,-110 104,-116 104,-116 104,-326 104,-326 104,-332 98,-338 92,-338 92,-338 36,-338 36,-338 30,-338 24,-332 24,-326 24,-326 24,-116 24,-116 24,-110 30,-104 36,-104"/>
<text text-anchor="middle" x="64" y="-325.2" font-family="Times,serif" font-size="11.00" fill="gray">Core</text>
</g>
<g id="clust4" class="cluster"><title>cluster_\rootOOP\Admin</title>
<path fill="none" stroke="gray" d="M41,-24C41,-24 87,-24 87,-24 93,-24 99,-30 99,-36 99,-36 99,-84 99,-84 99,-90 93,-96 87,-96 87,-96 41,-96 41,-96 35,-96 29,-90 29,-84 29,-84 29,-36 29,-36 29,-30 35,-24 41,-24"/>
<text text-anchor="middle" x="64" y="-83.2" font-family="Times,serif" font-size="11.00" fill="gray">Admin</text>
</g>
<!-- \\rootOOP\\Core\\MySQL -->
<g id="node1" class="node"><title>\\rootOOP\\Core\\MySQL</title>
<polygon fill="none" stroke="black" points="91,-310 37,-310 37,-274 91,-274 91,-310"/>
<text text-anchor="middle" x="64" y="-289.2" font-family="Courier,monospace" font-size="11.00">MySQL</text>
</g>
<!-- \\rootOOP\\Core\\File -->
<g id="node2" class="node"><title>\\rootOOP\\Core\\File</title>
<polygon fill="none" stroke="black" points="91,-256 37,-256 37,-220 91,-220 91,-256"/>
<text text-anchor="middle" x="64" y="-235.2" font-family="Courier,monospace" font-size="11.00">File</text>
</g>
<!-- \\rootOOP\\Core\\User -->
<g id="node3" class="node"><title>\\rootOOP\\Core\\User</title>
<polygon fill="none" stroke="black" points="91,-202 37,-202 37,-166 91,-166 91,-202"/>
<text text-anchor="middle" x="64" y="-181.2" font-family="Courier,monospace" font-size="11.00">User</text>
</g>
<!-- \\rootOOP\\Core\\Options -->
<g id="node4" class="node"><title>\\rootOOP\\Core\\Options</title>
<polygon fill="none" stroke="black" points="96,-148 32,-148 32,-112 96,-112 96,-148"/>
<text text-anchor="middle" x="64" y="-127.2" font-family="Courier,monospace" font-size="11.00">Options</text>
</g>
<!-- \\rootOOP\\Admin\\Job -->
<g id="node5" class="node"><title>\\rootOOP\\Admin\\Job</title>
<polygon fill="none" stroke="black" points="91,-68 37,-68 37,-32 91,-32 91,-68"/>
<text text-anchor="middle" x="64" y="-47.2" font-family="Courier,monospace" font-size="11.00">Job</text>
</g>
</g>
</svg>
