<?xml version="1.0" encoding="UTF-8" standalone="no"?>
<!DOCTYPE svg PUBLIC "-//W3C//DTD SVG 1.1//EN"
 "http://www.w3.org/Graphics/SVG/1.1/DTD/svg11.dtd">
<!-- Generated by graphviz version 2.36.0 (20140111.2315)
 -->
<!-- Title: G Pages: 1 -->
<svg width="104pt" height="312pt"
 viewBox="0.00 0.00 104.00 312.00" xmlns="http://www.w3.org/2000/svg" xmlns:xlink="http://www.w3.org/1999/xlink">
<g id="graph0" class="graph" transform="scale(1 1) rotate(0) translate(4 308)">
<title>G</title>
<polygon fill="white" stroke="none" points="-4,4 -4,-308 100,-308 100,4 -4,4"/>
<g id="clust1" class="cluster"><title>cluster_Global</title>
<path fill="none" stroke="gray" d="M20,-8C20,-8 76,-8 76,-8 82,-8 88,-14 88,-20 88,-20 88,-284 88,-284 88,-290 82,-296 76,-296 76,-296 20,-296 20,-296 14,-296 8,-290 8,-284 8,-284 8,-20 8,-20 8,-14 14,-8 20,-8"/>
<text text-anchor="middle" x="48" y="-283.2" font-family="Times,serif" font-size="11.00" fill="gray">Global</text>
</g>
<!-- \\MySQL -->
<g id="node1" class="node"><title>\\MySQL</title>
<polygon fill="none" stroke="black" points="75,-268 21,-268 21,-232 75,-232 75,-268"/>
<text text-anchor="middle" x="48" y="-247.2" font-family="Courier,monospace" font-size="11.00">MySQL</text>
</g>
<!-- \\File -->
<g id="node2" class="node"><title>\\File</title>
<polygon fill="none" stroke="black" points="75,-214 21,-214 21,-178 75,-178 75,-214"/>
<text text-anchor="middle" x="48" y="-193.2" font-family="Courier,monospace" font-size="11.00">File</text>
</g>
<!-- \\User -->
<g id="node3" class="node"><title>\\User</title>
<polygon fill="none" stroke="black" points="75,-160 21,-160 21,-124 75,-124 75,-160"/>
<text text-anchor="middle" x="48" y="-139.2" font-family="Courier,monospace" font-size="11.00">User</text>
</g>
<!-- \\Job -->
<g id="node4" class="node"><title>\\Job</title>
<polygon fill="none" stroke="black" points="75,-106 21,-106 21,-70 75,-70 75,-106"/>
<text text-anchor="middle" x="48" y="-85.2" font-family="Courier,monospace" font-size="11.00">Job</text>
</g>
<!-- \\Options -->
<g id="node5" class="node"><title>\\Options</title>
<polygon fill="none" stroke="black" points="80,-52 16,-52 16,-16 80,-16 80,-52"/>
<text text-anchor="middle" x="48" y="-31.2" font-family="Courier,monospace" font-size="11.00">Options</text>
</g>
</g>
</svg>
